<svg height='100px' width='100px'  fill="#000000" xmlns="http://www.w3.org/2000/svg" xmlns:xlink="http://www.w3.org/1999/xlink" version="1.1" x="0px" y="0px" viewBox="0 0 349.2 371.4" enable-background="new 0 0 349.2 371.4" xml:space="preserve"><g><path fill="#000000" d="M129.8,316.3c-8.2-1-13-12-28.8-11c0,0-17.5,1.2-15,18.2s15.2,23.5,32.8,17.2s21-12.8,22-17.2   S138,317.3,129.8,316.3z M116.5,335c-4.8,0-8.8-3.9-8.8-8.8c0-4.8,3.9-8.8,8.8-8.8c4.8,0,8.8,3.9,8.8,8.8   C125.3,331.1,121.4,335,116.5,335z"></path><path fill="#000000" d="M248,305.3c-15.8-1-20.5,10-28.8,11s-12,2.8-11,7.2s4.5,11,22,17.2s30.2-0.2,32.7-17.2S248,305.3,248,305.3   z M232.5,335c-4.8,0-8.8-3.9-8.8-8.8c0-4.8,3.9-8.8,8.8-8.8s8.8,3.9,8.8,8.8C241.3,331.1,237.4,335,232.5,335z"></path><path fill="#000000" d="M92.8,182.8c11.2-6,57.5-29.5,57.5-30.2s2-4.5-2.8-5.2s-70.8,2.2-70.8,2.2s-7.5-0.2-4.2,11.8   S81.5,188.8,92.8,182.8z"></path><path fill="#000000" d="M272.3,149.5c0,0-66-3-70.7-2.2s-2.8,4.5-2.8,5.2s46.2,24.2,57.5,30.2c11.2,6,17-9.5,20.2-21.5   S272.3,149.5,272.3,149.5z"></path><path fill="#000000" d="M338.7,243.1c-1.1-21.3-20.6-40.4-26.9-46c0.2-6.2,0.6-23.5,0.6-39.8c0-17-8.2-24-13.3-26.7v-16   c0-96.9-93-104.4-121.5-104.4c-1.3,0-2.3,0-3.1,0c-0.8,0-1.1,0-2,0c-0.8,0-1.8,0-3.1,0C141,10.2,48,17.8,48,114.6v16.1   c-4.8,2.8-12.3,9.8-12.3,26.5c0,16.3,0.9,33.5,1.2,39.8c-6.3,5.6-25.2,24.2-26.5,45.3c-0.6,10.4,3,19.8,10.8,28   c21.9,22.8,24.4,37.4,24.4,37.5l0,0.2c0.1,0.5,2.4,13,10.6,26c11.1,17.4,27.6,27.3,47.8,28.5c2.2,0.1,4.3,0.2,6.4,0.3   c0.9,0,1.8,0,2.7,0c25.1,0,32.1-7.5,37.3-12.9c2.6-2.8,3.8-3.9,6.5-4.2c4.7-0.6,10.8-1,17.2-1c6.4,0,12.5,0.3,17.2,1   c2.7,0.4,4,1.6,6.7,4.3c5.3,5.4,12.7,12.9,37.7,12.9c0.6,0,1.3,0,1.9,0c2.4,0,4.9-0.1,7.2-0.3c20.2-1.2,36.7-11,47.8-28.5   c8.2-12.9,10.5-25.5,10.6-26l0-0.3c0-0.2,2.2-15.3,24.3-37.4C335.5,262.6,339.2,253.3,338.7,243.1z M105.2,33.6   C129,22,155.7,20.2,169.5,20.2c1.2,0,2.2,0,2.9,0c0.5,0,0.8,0,1.1,0c0.3,0,0.6,0,1.1,0c0.7,0,1.7,0,2.9,0   c13.8,0,40.5,1.7,64.3,13.4c31.2,15.3,47.1,42.7,47.2,80.7H177.4h-5.7H58.1C58.1,76.3,74,48.9,105.2,33.6z M320.5,263.4   c-23.6,23.6-26.8,40.7-27.1,43.1c-0.5,2.8-8.9,43.8-49.1,46.1c-2.2,0.1-4.6,0.2-6.8,0.2c-0.6,0-1.2,0-1.8,0   c-20.9,0-26-5.3-30.6-9.9c-2.9-3-6.3-6.4-12.6-7.2c-5.1-0.7-11.7-1-18.5-1c-6.8,0-13.4,0.4-18.5,1c-6.3,0.8-9.6,4.3-12.4,7.3   c-4.3,4.6-9.2,9.8-30,9.8c-0.8,0-1.6,0-2.5,0c-1.9,0-3.9-0.1-6-0.2c-40.5-2.4-48.7-43.9-49.1-46.2c-0.3-2-3.6-18.5-27.1-43   c-5.9-6.1-8.5-12.8-8.1-20.4c1.2-20.4,24.6-39.7,24.8-39.9l2-1.6L47,199c0-0.2-1.3-21.7-1.3-41.7c0-15.3,7.7-18.2,8.6-18.5l3.8-0.7   v0.2h113.7h5.7h112l3.6,0.7c0.1,0,9.4,2.2,9.4,18.4c0,20-0.7,41.6-0.7,41.8l-0.1,2.5l1.9,1.6c0.1,0,6.1,5,12.4,12.7   c5.6,6.8,12.3,17.2,12.8,27.7C329.1,251,326.4,257.5,320.5,263.4z"></path><path fill="#000000" d="M57.4,231.3c1.9-1.1,2.5-3.6,1.4-5.5c-0.7-1.2-2-1.9-3.4-1.9c-0.7,0-1.4,0.2-2.1,0.6l-18,10.9   c-0.9,0.6-1.6,1.4-1.8,2.5c-0.3,1-0.1,2.1,0.5,3c0.7,1.2,2,1.9,3.4,1.9c0.7,0,1.4-0.2,2.1-0.6L57.4,231.3z"></path><path fill="#000000" d="M63.4,241.8c1.9-1.1,2.5-3.6,1.4-5.5c-0.7-1.2-2-1.9-3.4-1.9c-0.7,0-1.4,0.2-2.1,0.6l-18,10.9   c-0.9,0.6-1.6,1.4-1.8,2.5c-0.3,1-0.1,2.1,0.5,3c0.7,1.2,2,1.9,3.4,1.9c0.7,0,1.4-0.2,2.1-0.6L63.4,241.8z"></path><path fill="#000000" d="M69.4,252.3c1.9-1.1,2.5-3.6,1.4-5.5c-0.7-1.2-2-1.9-3.4-1.9c-0.7,0-1.4,0.2-2.1,0.6l-18,10.9   c-0.9,0.6-1.6,1.4-1.8,2.5c-0.3,1-0.1,2.1,0.5,3c0.7,1.2,2,1.9,3.4,1.9c0.7,0,1.4-0.2,2.1-0.6L69.4,252.3z"></path><path fill="#000000" d="M73.3,255.4c-0.7,0-1.4,0.2-2.1,0.6l-18,10.9c-0.9,0.6-1.6,1.4-1.8,2.5c-0.3,1-0.1,2.1,0.5,3   c0.7,1.2,2,1.9,3.4,1.9c0.7,0,1.4-0.2,2.1-0.6l18-10.9c1.9-1.1,2.5-3.6,1.4-5.5C76,256.1,74.7,255.4,73.3,255.4z"></path><path fill="#000000" d="M159.8,282.3h-0.5c-2.3,0-4.2,1.9-4.2,4.2V321c0,2.3,1.9,4.2,4.2,4.2h0.5c2.3,0,4.2-1.9,4.2-4.2v-34.5   C164,284.2,162.1,282.3,159.8,282.3z"></path><path fill="#000000" d="M174.8,272.3h-0.5c-2.3,0-4.2,1.9-4.2,4.2V323c0,2.3,1.9,4.2,4.2,4.2h0.5c2.3,0,4.2-1.9,4.2-4.2v-46.5   C179,274.2,177.1,272.3,174.8,272.3z"></path><path fill="#000000" d="M313.9,235.3l-18-10.9c-0.6-0.4-1.3-0.6-2.1-0.6c-1.4,0-2.7,0.7-3.4,1.9c-1.1,1.9-0.5,4.3,1.4,5.5l18,10.9   c0.6,0.4,1.3,0.6,2.1,0.6c1.4,0,2.7-0.7,3.4-1.9c0.6-0.9,0.7-2,0.5-3C315.4,236.7,314.8,235.8,313.9,235.3z"></path><path fill="#000000" d="M307.9,245.8l-18-10.9c-0.6-0.4-1.3-0.6-2.1-0.6c-1.4,0-2.7,0.7-3.4,1.9c-1.1,1.9-0.5,4.3,1.4,5.5l18,10.9   c0.6,0.4,1.3,0.6,2.1,0.6c1.4,0,2.7-0.7,3.4-1.9c0.6-0.9,0.7-2,0.5-3C309.4,247.2,308.8,246.3,307.9,245.8z"></path><path fill="#000000" d="M301.9,256.3l-18-10.9c-0.6-0.4-1.3-0.6-2.1-0.6c-1.4,0-2.7,0.7-3.4,1.9c-1.1,1.9-0.5,4.3,1.4,5.5l18,10.9   c0.6,0.4,1.3,0.6,2.1,0.6c1.4,0,2.7-0.7,3.4-1.9c0.6-0.9,0.7-2,0.5-3C303.4,257.7,302.8,256.8,301.9,256.3z"></path><path fill="#000000" d="M295.9,266.8l-18-10.9c-0.6-0.4-1.3-0.6-2.1-0.6c-1.4,0-2.7,0.7-3.4,1.9c-1.1,1.9-0.5,4.3,1.4,5.5l18,10.9   c0.6,0.4,1.3,0.6,2.1,0.6c1.4,0,2.7-0.7,3.4-1.9c0.6-0.9,0.7-2,0.5-3C297.4,268.2,296.8,267.3,295.9,266.8z"></path><path fill="#000000" d="M189.8,282.3h-0.5c-2.3,0-4.2,1.9-4.2,4.2V321c0,2.3,1.9,4.2,4.2,4.2h0.5c2.3,0,4.2-1.9,4.2-4.2v-34.5   C194,284.2,192.1,282.3,189.8,282.3z"></path><path fill="#000000" d="M238.3,252.5c0.7,0,1.3-0.3,1.7-0.9c0.5-0.9,0.3-2-0.5-2.6c-1.8-1.4-45.1-33.4-63.3-36.7   c-0.3-0.1-1,0-1.6,0c0,0-0.2,0-0.3,0c-0.6,0-1.3-0.1-1.6,0c-18.2,3.3-61.4,35.3-63.3,36.6c-0.8,0.6-1,1.8-0.5,2.7   c0.4,0.6,1,1,1.7,1c0.3,0,0.6,0,0.9-0.1c37.5-18.3,55.3-20.2,61.2-20.2h3.3c5.9,0,23.7,1.9,61.2,20.2   C237.7,252.6,238,252.5,238.3,252.5z"></path></g></svg>